<?xml version="1.0" encoding="UTF-8"?>
<svg version="1.1" xmlns="http://www.w3.org/2000/svg" width="64" height="64">
<path d="M0 0 C21.12 0 42.24 0 64 0 C64 21.12 64 42.24 64 64 C42.88 64 21.76 64 0 64 C0 42.88 0 21.76 0 0 Z " fill="#352A30" transform="translate(0,0)"/>
<path d="M0 0 C1.98 0 3.96 0 6 0 C7.11308226 19.33980426 7.09941043 38.63705714 7 58 C-2.24 58 -11.48 58 -21 58 C-21 56.35 -21 54.7 -21 53 C-19.0234375 51.26171875 -19.0234375 51.26171875 -16.375 49.6875 C-10.56632952 45.92216325 -6.22118789 41.66356366 -4 35 C-4.99 35 -5.98 35 -7 35 C-7 28.07 -7 21.14 -7 14 C-7.66 14 -8.32 14 -9 14 C-8.67 14.99 -8.34 15.98 -8 17 C-7.9193378 18.48123547 -7.89238807 19.96582204 -7.90234375 21.44921875 C-7.90556641 22.29677734 -7.90878906 23.14433594 -7.91210938 24.01757812 C-7.92048828 24.89865234 -7.92886719 25.77972656 -7.9375 26.6875 C-7.94201172 27.58017578 -7.94652344 28.47285156 -7.95117188 29.39257812 C-7.96295017 31.59511987 -7.97939836 33.79752599 -8 36 C-8.66 36 -9.32 36 -10 36 C-10 29.07 -10 22.14 -10 15 C-11.32 15.33 -12.64 15.66 -14 16 C-14.43501326 10.77984085 -14.43501326 10.77984085 -14 8 C-11.6875 5.5 -11.6875 5.5 -9 4 C-8.01 4 -7.02 4 -6 4 C-6 3.34 -6 2.68 -6 2 C-3.03 2.495 -3.03 2.495 0 3 C0 2.01 0 1.02 0 0 Z " fill="#150D17" transform="translate(54,4)"/>
<path d="M0 0 C0.87462891 0.00902344 1.74925781 0.01804688 2.65039062 0.02734375 C4.78788064 0.0507043 6.92522786 0.08656753 9.0625 0.125 C9.0625 0.455 9.0625 0.785 9.0625 1.125 C7.77279297 1.16367187 7.77279297 1.16367187 6.45703125 1.203125 C-4.9459364 1.75026849 -16.88514715 3.54573344 -25.9375 11.125 C-26.9275 12.61 -26.9275 12.61 -27.9375 14.125 C-26.9475 13.795 -25.9575 13.465 -24.9375 13.125 C-21.87557166 16.47299085 -21.57867309 18.72477035 -21.64453125 23.203125 C-21.65419922 24.36328125 -21.66386719 25.5234375 -21.67382812 26.71875 C-21.69896484 27.9253125 -21.72410156 29.131875 -21.75 30.375 C-21.77030273 32.20804688 -21.77030273 32.20804688 -21.79101562 34.078125 C-21.8263602 37.09419498 -21.8757044 40.10937487 -21.9375 43.125 C-23.4225 43.62 -23.4225 43.62 -24.9375 44.125 C-25.5975 43.795 -26.2575 43.465 -26.9375 43.125 C-24.38857485 49.17869724 -21.67458272 52.66956329 -16.546875 56.77734375 C-15.75023437 57.44443359 -15.75023437 57.44443359 -14.9375 58.125 C-14.9375 58.455 -14.9375 58.785 -14.9375 59.125 C-22.1975 59.125 -29.4575 59.125 -36.9375 59.125 C-37.2675 57.475 -37.5975 55.825 -37.9375 54.125 C-36 54.4375 -36 54.4375 -33.9375 55.125 C-33.6075 56.115 -33.2775 57.105 -32.9375 58.125 C-27.4925 57.63 -27.4925 57.63 -21.9375 57.125 C-22.9275 56.135 -23.9175 55.145 -24.9375 54.125 C-28.58291845 54.35977199 -28.58291845 54.35977199 -31.9375 55.125 C-31.9375 54.465 -31.9375 53.805 -31.9375 53.125 C-29.4625 52.63 -29.4625 52.63 -26.9375 52.125 C-27.4325 51.361875 -27.9275 50.59875 -28.4375 49.8125 C-29.9375 47.125 -29.9375 47.125 -29.9375 44.125 C-31.9175 43.795 -33.8975 43.465 -35.9375 43.125 C-38.37330984 36.46711977 -39.06654908 30.16104337 -39.03515625 23.09765625 C-39.03193359 21.81181641 -39.02871094 20.52597656 -39.02539062 19.20117188 C-39.01703802 17.86328055 -39.00857311 16.52538993 -39 15.1875 C-38.99497659 13.82226726 -38.99041517 12.45703274 -38.98632812 11.09179688 C-38.9745886 7.76951212 -38.95665455 4.44725028 -38.9375 1.125 C-32.6675 1.125 -26.3975 1.125 -19.9375 1.125 C-19.9375 1.785 -19.9375 2.445 -19.9375 3.125 C-20.9275 3.125 -21.9175 3.125 -22.9375 3.125 C-22.9375 3.785 -22.9375 4.445 -22.9375 5.125 C-22.091875 4.67125 -21.24625 4.2175 -20.375 3.75 C-13.3805841 0.44354885 -7.63716925 -0.15100107 0 0 Z " fill="#191220" transform="translate(41.9375,1.875)"/>
<path d="M0 0 C3.3 0 6.6 0 10 0 C7 2 7 2 4.8125 3.1875 C2.59332344 5.00934173 2.59332344 5.00934173 2.75 8.6875 C2.87375 10.3271875 2.87375 10.3271875 3 12 C3.99 12 4.98 12 6 12 C6 19.26 6 26.52 6 34 C6.66 34.33 7.32 34.66 8 35 C4.62722811 38.66186662 2.77737198 40.08905121 -2 42 C-2 36.72 -2 31.44 -2 26 C-4.31 25.67 -6.62 25.34 -9 25 C-9 32.26 -9 39.52 -9 47 C-13.88763638 45.04494545 -15.33987418 44.29712633 -18 40 C-17.9375 37.8125 -17.9375 37.8125 -17 36 C-16.01 35.34 -15.02 34.68 -14 34 C-13.27034634 31.43717258 -13.27034634 31.43717258 -13 29 C-14.32 29.33 -15.64 29.66 -17 30 C-17.1875 27.625 -17.1875 27.625 -17 25 C-16.01 24.34 -15.02 23.68 -14 23 C-13.63501966 20.10391601 -13.63501966 20.10391601 -13.8125 16.875 C-13.83957031 15.77929688 -13.86664062 14.68359375 -13.89453125 13.5546875 C-13.92933594 12.71164063 -13.96414062 11.86859375 -14 11 C-15.98 10.34 -17.96 9.68 -20 9 C-20 8.34 -20 7.68 -20 7 C-18.35546875 5.7109375 -18.35546875 5.7109375 -16.1875 4.375 C-15.47980469 3.92898437 -14.77210937 3.48296875 -14.04296875 3.0234375 C-12 2 -12 2 -9 2 C-9 7.94 -9 13.88 -9 20 C-7.35 20 -5.7 20 -4 20 C-4.04125 18.72125 -4.0825 17.4425 -4.125 16.125 C-4.1953125 13.9453125 -4.1953125 13.9453125 -4 12 C-3.34 11.34 -2.68 10.68 -2 10 C-1.32059533 7.57284794 -1.32059533 7.57284794 -0.875 4.875 C-0.58625 3.26625 -0.2975 1.6575 0 0 Z " fill="#FEF6BC" transform="translate(38,7)"/>
<path d="M0 0 C21.12 0 42.24 0 64 0 C64 21.12 64 42.24 64 64 C42.88 64 21.76 64 0 64 C0 42.88 0 21.76 0 0 Z M2 2 C2 21.8 2 41.6 2 62 C11.24 62 20.48 62 30 62 C31.74506615 60.25493385 31.23282784 57.80960857 31.31640625 55.43359375 C31.35830078 54.30888672 31.40019531 53.18417969 31.44335938 52.02539062 C31.48267578 50.84138672 31.52199219 49.65738281 31.5625 48.4375 C31.60568359 47.24962891 31.64886719 46.06175781 31.69335938 44.83789062 C31.79983453 41.89207803 31.90045681 38.94605498 32 36 C32.33 41.94 32.66 47.88 33 54 C38.31019936 52.95453412 38.31019936 52.95453412 41 49 C41.99 48.67 42.98 48.34 44 48 C45.80779189 44.55146296 46.24855819 41.6630583 46.23046875 37.8046875 C46.22853516 36.84175781 46.22660156 35.87882812 46.22460938 34.88671875 C46.21236328 33.89285156 46.20011719 32.89898437 46.1875 31.875 C46.18685547 30.87339844 46.18621094 29.87179688 46.18554688 28.83984375 C46.20027415 23.33097746 46.20027415 23.33097746 45 18 C45.66 18 46.32 18 47 18 C47 24.93 47 31.86 47 39 C47.99 39 48.98 39 50 39 C46.57720706 46.79636169 42.14738948 51.87414681 34.5390625 55.6640625 C34.03117187 56.10492188 33.52328125 56.54578125 33 57 C33 58.65 33 60.3 33 62 C42.57 62 52.14 62 62 62 C63.20065325 59.5986935 63.12920987 58.10742785 63.1328125 55.42578125 C63.13482666 54.46236816 63.13684082 53.49895508 63.13891602 52.50634766 C63.13202759 50.92539307 63.13202759 50.92539307 63.125 49.3125 C63.12234131 48.22501465 63.11968262 47.1375293 63.11694336 46.01708984 C63.06530557 36.71575128 62.84465942 27.42167566 62.5625 18.125 C62.5429425 17.4404776 62.52338501 16.7559552 62.50323486 16.0506897 C62.44612923 14.09873918 62.38142565 12.14701544 62.31640625 10.1953125 C62.26141968 8.50946045 62.26141968 8.50946045 62.20532227 6.78955078 C62.10873186 3.91663544 62.10873186 3.91663544 61 1 C53.72258248 0.97458733 46.44517646 0.95710676 39.16772461 0.94506836 C36.6934364 0.94004821 34.21915115 0.93323074 31.74487305 0.92456055 C28.18277252 0.91239344 24.62071131 0.90674841 21.05859375 0.90234375 C19.40663246 0.89460182 19.40663246 0.89460182 17.72129822 0.88670349 C16.68074783 0.88662796 15.64019745 0.88655243 14.56811523 0.88647461 C13.6598851 0.884254 12.75165497 0.88203339 11.81590271 0.87974548 C8.52569453 1.02025545 5.26010869 1.53427019 2 2 Z " fill="#53605F" transform="translate(0,0)"/>
<path d="M0 0 C1.04055038 0.00007553 2.08110077 0.00015106 3.15318298 0.00022888 C4.80514427 0.00797081 4.80514427 0.00797081 6.49047852 0.01586914 C7.63476822 0.01728409 8.77905792 0.01869904 9.95802307 0.02015686 C13.59517078 0.02573238 17.23225582 0.03828041 20.86938477 0.05102539 C23.34269117 0.05604355 25.81599853 0.06060591 28.28930664 0.06469727 C34.33685389 0.07569379 40.38436485 0.09240751 46.43188477 0.11352539 C47.51267228 3.35588794 47.63697491 5.89595934 47.74829102 9.30883789 C47.81149536 11.20243042 47.81149536 11.20243042 47.87597656 13.13427734 C47.91602083 14.50234332 47.95547795 15.87042659 47.99438477 17.23852539 C48.0251561 18.26881363 48.0251561 18.26881363 48.05654907 19.31991577 C48.3435518 29.02032594 48.55539632 38.72135149 48.61938477 48.42602539 C48.63235596 49.47999512 48.64532715 50.53396484 48.65869141 51.61987305 C48.6598999 52.58328613 48.6611084 53.54669922 48.66235352 54.53930664 C48.6664624 55.37888916 48.67057129 56.21847168 48.67480469 57.08349609 C48.43188477 59.11352539 48.43188477 59.11352539 46.43188477 61.11352539 C45.80859069 41.77648962 45.25290266 22.46347986 45.43188477 3.11352539 C43.45188477 3.11352539 41.47188477 3.11352539 39.43188477 3.11352539 C39.10188477 4.10352539 38.77188477 5.09352539 38.43188477 6.11352539 C38.43188477 5.12352539 38.43188477 4.13352539 38.43188477 3.11352539 C37.77188477 3.11352539 37.11188477 3.11352539 36.43188477 3.11352539 C36.43188477 2.45352539 36.43188477 1.79352539 36.43188477 1.11352539 C33.45145966 1.20145248 30.47367165 1.30845115 27.49438477 1.42602539 C26.66358398 1.44858398 25.8327832 1.47114258 24.97680664 1.49438477 C19.76014479 1.71766601 15.33385918 2.5557773 10.4375 4.38378906 C8.45436656 5.10534547 6.48595753 5.63605492 4.43188477 6.11352539 C4.43188477 5.45352539 4.43188477 4.79352539 4.43188477 4.11352539 C5.42188477 4.11352539 6.41188477 4.11352539 7.43188477 4.11352539 C7.43188477 3.45352539 7.43188477 2.79352539 7.43188477 2.11352539 C1.16188477 2.11352539 -5.10811523 2.11352539 -11.56811523 2.11352539 C-11.56811523 20.92352539 -11.56811523 39.73352539 -11.56811523 59.11352539 C-11.89811523 59.11352539 -12.22811523 59.11352539 -12.56811523 59.11352539 C-12.56811523 39.97352539 -12.56811523 20.83352539 -12.56811523 1.11352539 C-8.10043483 0.47528533 -4.3974618 -0.01075174 0 0 Z " fill="#25323C" transform="translate(14.568115234375,0.886474609375)"/>
<path d="M0 0 C1.24007812 -0.00257812 2.48015625 -0.00515625 3.7578125 -0.0078125 C6.875 0.125 6.875 0.125 8.875 1.125 C8.875 2.115 8.875 3.105 8.875 4.125 C3.925 4.125 -1.025 4.125 -6.125 4.125 C-6.24875 5.73375 -6.3725 7.3425 -6.5 9 C-6.875 13.875 -6.875 13.875 -9.125 16.125 C-9.58311675 18.09735333 -9.58311675 18.09735333 -9.75 20.25 C-9.87375 21.52875 -9.9975 22.8075 -10.125 24.125 C-11.775 24.125 -13.425 24.125 -15.125 24.125 C-15.125 18.185 -15.125 12.245 -15.125 6.125 C-19.085 8.105 -19.085 8.105 -23.125 10.125 C-24.115 10.455 -25.105 10.785 -26.125 11.125 C-26.125 11.785 -26.125 12.445 -26.125 13.125 C-24.475 13.125 -22.825 13.125 -21.125 13.125 C-23.105 14.115 -23.105 14.115 -25.125 15.125 C-26.115 14.465 -27.105 13.805 -28.125 13.125 C-29.115 13.455 -30.105 13.785 -31.125 14.125 C-29.18758907 9.19340853 -25.66328792 6.82353711 -20.93359375 4.67578125 C-19.82113281 4.26714844 -18.70867188 3.85851562 -17.5625 3.4375 C-16.44746094 3.02113281 -15.33242188 2.60476562 -14.18359375 2.17578125 C-9.21792203 0.46982251 -5.30081736 -0.01106642 0 0 Z " fill="#7E6A5E" transform="translate(44.125,2.875)"/>
<path d="M0 0 C0.33 0 0.66 0 1 0 C1 11.55 1 23.1 1 35 C-7.91 35 -16.82 35 -26 35 C-25.34 33.35 -24.68 31.7 -24 30 C-22.68 30.33 -21.36 30.66 -20 31 C-19.87625 30.38125 -19.7525 29.7625 -19.625 29.125 C-19 27 -19 27 -17 25 C-16.01 25 -15.02 25 -14 25 C-12.3125 27 -12.3125 27 -11 29 C-12 31 -12 31 -14 32 C-12.22925083 32.02705729 -10.45838289 32.04642195 -8.6875 32.0625 C-7.70136719 32.07410156 -6.71523438 32.08570313 -5.69921875 32.09765625 C-2.90036151 32.12329862 -2.90036151 32.12329862 0 31 C0 30.34 0 29.68 0 29 C-0.61875 29.185625 -1.2375 29.37125 -1.875 29.5625 C-4 30 -4 30 -6 29 C-6 28.34 -6 27.68 -6 27 C-6.598125 26.87625 -7.19625 26.7525 -7.8125 26.625 C-10 26 -10 26 -13 24 C-11.87548273 21.0280615 -10.77706209 18.66559313 -9 16 C-5.85709443 17.51325083 -3.01989166 19.188065 0 21 C0 14.07 0 7.14 0 0 Z " fill="#1B1C2B" transform="translate(60,27)"/>
<path d="M0 0 C0.66 0 1.32 0 2 0 C2 6.93 2 13.86 2 21 C2.99 21 3.98 21 5 21 C4.17567698 27.7737848 -0.67159562 32.27346395 -5.79296875 36.46875 C-9.45424107 39 -9.45424107 39 -12 39 C-12 40.65 -12 42.3 -12 44 C-11.16227051 43.99476318 -10.32454102 43.98952637 -9.46142578 43.98413086 C-6.35661064 43.96709986 -3.25181929 43.95455518 -0.14697266 43.94506836 C1.85906551 43.93755964 3.86508202 43.9248553 5.87109375 43.91210938 C7.75634766 43.90727539 7.75634766 43.90727539 9.6796875 43.90234375 C11.42354736 43.89448853 11.42354736 43.89448853 13.20263672 43.88647461 C16 44 16 44 18 45 C18.495 44.01 18.495 44.01 19 43 C19 43.99 19 44.98 19 46 C-0.8 46 -20.6 46 -41 46 C-41 45.67 -41 45.34 -41 45 C-31.76 45 -22.52 45 -13 45 C-13.33 42.69 -13.66 40.38 -14 38 C-14.07271451 36.31505619 -14.10867897 34.62788233 -14.09765625 32.94140625 C-14.09443359 32.06162109 -14.09121094 31.18183594 -14.08789062 30.27539062 C-14.07951172 29.38013672 -14.07113281 28.48488281 -14.0625 27.5625 C-14.05798828 26.64017578 -14.05347656 25.71785156 -14.04882812 24.76757812 C-14.03713938 22.51164952 -14.02075455 20.25586033 -14 18 C-13.34 17.67 -12.68 17.34 -12 17 C-12 23.27 -12 29.54 -12 36 C-9.525 35.505 -9.525 35.505 -7 35 C-6.30062468 33.68352881 -5.63270867 32.34977849 -5 31 C-2.875 30.25 -2.875 30.25 -1 30 C0.01540112 25.89776415 0.01540112 25.89776415 -1 22 C-0.34 22 0.32 22 1 22 C0.67 14.74 0.34 7.48 0 0 Z " fill="#35474E" transform="translate(45,18)"/>
<path d="M0 0 C-0.33 5.61 -0.66 11.22 -1 17 C-0.01 17.33 0.98 17.66 2 18 C0.35 18.66 -1.3 19.32 -3 20 C-3 14.72 -3 9.44 -3 4 C-5.31 3.67 -7.62 3.34 -10 3 C-10 10.26 -10 17.52 -10 25 C-14.88763638 23.04494545 -16.33987418 22.29712633 -19 18 C-18.9375 15.8125 -18.9375 15.8125 -18 14 C-17.01 13.34 -16.02 12.68 -15 12 C-14.27034634 9.43717258 -14.27034634 9.43717258 -14 7 C-15.32 7.33 -16.64 7.66 -18 8 C-18.1875 5.625 -18.1875 5.625 -18 3 C-17.01 2.34 -16.02 1.68 -15 1 C-15 1.99 -15 2.98 -15 4 C-14.34 4 -13.68 4 -13 4 C-12.67 4.99 -12.34 5.98 -12 7 C-12 5.02 -12 3.04 -12 1 C-10.37512529 0.83211627 -8.75009558 0.66573213 -7.125 0.5 C-6.22007813 0.4071875 -5.31515625 0.314375 -4.3828125 0.21875 C-2 0 -2 0 0 0 Z " fill="#E8BB58" transform="translate(39,29)"/>
<path d="M0 0 C1.66611905 -0.042721 3.33382885 -0.04063832 5 0 C6 1 6 1 6.09765625 4.37890625 C6.09098369 5.77347077 6.07902532 7.16801743 6.0625 8.5625 C6.05798828 9.27341797 6.05347656 9.98433594 6.04882812 10.71679688 C6.03700864 12.47790013 6.01907263 14.23896036 6 16 C5.34 15.34 4.68 14.68 4 14 C3.67 15.65 3.34 17.3 3 19 C3.99 19 4.98 19 6 19 C6 20.65 6 22.3 6 24 C4.02 24.99 4.02 24.99 2 26 C1.49620971 28.28694223 1.49620971 28.28694223 2 31 C4.53390654 33.42373669 6.8564241 35.42821205 10 37 C10 29.74 10 22.48 10 15 C11.65 15 13.3 15 15 15 C13.68 15.33 12.36 15.66 11 16 C11 24.58 11 33.16 11 42 C4.25 37.5 4.25 37.5 1.125 34.75 C0.52945312 34.22921875 -0.06609375 33.7084375 -0.6796875 33.171875 C-1.11539062 32.78515625 -1.55109375 32.3984375 -2 32 C-1.67 30.68 -1.34 29.36 -1 28 C-0.34 28 0.32 28 1 28 C1 19.75 1 11.5 1 3 C0.34 2.67 -0.32 2.34 -1 2 C-0.67 1.34 -0.34 0.68 0 0 Z " fill="#632922" transform="translate(19,17)"/>
<path d="M0 0 C2 2 2 2 2.22705078 4.15478516 C2.21134033 5.45875244 2.21134033 5.45875244 2.1953125 6.7890625 C2.18564453 8.20058594 2.18564453 8.20058594 2.17578125 9.640625 C2.15902344 10.62546875 2.14226563 11.6103125 2.125 12.625 C2.11597656 13.61757813 2.10695313 14.61015625 2.09765625 15.6328125 C2.07404116 18.08878134 2.04110799 20.54427168 2 23 C-0.31 23.66 -2.62 24.32 -5 25 C-5.66 24.01 -6.32 23.02 -7 22 C-5.68 22.33 -4.36 22.66 -3 23 C-3 22.01 -3 21.02 -3 20 C-3.99 19.67 -4.98 19.34 -6 19 C-5.34 19 -4.68 19 -4 19 C-4.33 16.69 -4.66 14.38 -5 12 C-7.475 11.01 -7.475 11.01 -10 10 C-10 9.67 -10 9.34 -10 9 C-9.01 8.67 -8.02 8.34 -7 8 C-7.33 8 -7.66 8 -8 8 C-8 5.69 -8 3.38 -8 1 C-5.23749964 -0.38125018 -3.05268901 -0.19079306 0 0 Z " fill="#2C172E" transform="translate(14,19)"/>
<path d="M0 0 C0.99 0.33 1.98 0.66 3 1 C2.67 1.66 2.34 2.32 2 3 C2.99 2.67 3.98 2.34 5 2 C8.06192834 5.34799085 8.35882691 7.59977035 8.29296875 12.078125 C8.28330078 13.23828125 8.27363281 14.3984375 8.26367188 15.59375 C8.23853516 16.8003125 8.21339844 18.006875 8.1875 19.25 C8.16719727 21.08304688 8.16719727 21.08304688 8.14648438 22.953125 C8.1111398 25.96919498 8.0617956 28.98437487 8 32 C6.515 32.495 6.515 32.495 5 33 C4.34 32.67 3.68 32.34 3 32 C2.67 32.99 2.34 33.98 2 35 C1.957279 33.33388095 1.95936168 31.66617115 2 30 C2.33 29.67 2.66 29.34 3 29 C3.09899523 27.45044441 3.13079524 25.89646327 3.1328125 24.34375 C3.13410156 23.40402344 3.13539062 22.46429688 3.13671875 21.49609375 C3.13285156 20.50738281 3.12898437 19.51867187 3.125 18.5 C3.12886719 17.51128906 3.13273438 16.52257812 3.13671875 15.50390625 C3.13478516 14.09431641 3.13478516 14.09431641 3.1328125 12.65625 C3.13168457 11.78806641 3.13055664 10.91988281 3.12939453 10.02539062 C3.2241537 8.00395846 3.2241537 8.00395846 2 7 C-0.67058851 6.85884839 -3.32432238 6.95752893 -6 7 C-5.81584568 9.94091587 -5.81584568 9.94091587 -5 13 C-3.04836882 14.43637698 -3.04836882 14.43637698 -1 15 C-3.31 15 -5.62 15 -8 15 C-8 11.37 -8 7.74 -8 4 C-6.35 4 -4.7 4 -3 4 C-1.15684329 2.0995533 -1.15684329 2.0995533 0 0 Z " fill="#131119" transform="translate(12,13)"/>
<path d="M0 0 C0.33 0 0.66 0 1 0 C1.06058594 0.60328125 1.12117187 1.2065625 1.18359375 1.828125 C1.26738281 2.62734375 1.35117188 3.4265625 1.4375 4.25 C1.55931641 5.43335938 1.55931641 5.43335938 1.68359375 6.640625 C1.97634993 8.82364639 2.42064419 10.8773182 3 13 C4.3921875 13.061875 4.3921875 13.061875 5.8125 13.125 C9 14 9 14 10.875 16.9375 C12 20 12 20 12 22 C10.35 22.33 8.7 22.66 7 23 C7 23.66 7 24.32 7 25 C9.31 24.34 11.62 23.68 14 23 C15.35432675 24.31200404 16.68733482 25.64631404 18 27 C18 27.33 18 27.66 18 28 C14.04 28 10.08 28 6 28 C6 27.34 6 26.68 6 26 C3.525 25.01 3.525 25.01 1 24 C1.33 25.65 1.66 27.3 2 29 C1.01 28.67 0.02 28.34 -1 28 C-0.67 18.76 -0.34 9.52 0 0 Z " fill="#1F1A2B" transform="translate(3,32)"/>
<path d="M0 0 C1.31611677 0.95336021 2.62778961 1.91285774 3.9375 2.875 C4.66839844 3.40867188 5.39929688 3.94234375 6.15234375 4.4921875 C8 6 8 6 9 8 C5.54074837 6.7508258 2.85306797 5.32472205 0 3 C-1.41377341 5.63904371 -2.37240135 8.07120629 -3 11 C-1.02 11.99 0.96 12.98 3 14 C3 14.66 3 15.32 3 16 C4.98 16 6.96 16 9 16 C9 16.66 9 17.32 9 18 C5.47320901 20.35119399 3.97120515 20.21443452 -0.1875 20.125 C-1.81751953 20.09792969 -1.81751953 20.09792969 -3.48046875 20.0703125 C-4.72763672 20.03550781 -4.72763672 20.03550781 -6 20 C-5.01 18.68 -4.02 17.36 -3 16 C-3.66 14.68 -4.32 13.36 -5 12 C-9.06024321 14.03802135 -9.06024321 14.03802135 -11 18 C-12.32 18 -13.64 18 -15 18 C-15.66 19.32 -16.32 20.64 -17 22 C-17.33 22 -17.66 22 -18 22 C-18.28125 19.69921875 -18.28125 19.69921875 -18 17 C-16.09375 15.33203125 -16.09375 15.33203125 -13.5 13.8125 C-7.724109 10.09355024 -3.98539357 5.53279499 0 0 Z " fill="#1A0F1C" transform="translate(51,40)"/>
<path d="M0 0 C0 0.33 0 0.66 0 1 C-4.455 1.495 -4.455 1.495 -9 2 C-9.04898438 2.69867188 -9.09796875 3.39734375 -9.1484375 4.1171875 C-9.22320312 5.02726563 -9.29796875 5.93734375 -9.375 6.875 C-9.44460937 7.77992187 -9.51421875 8.68484375 -9.5859375 9.6171875 C-10 12 -10 12 -12 14 C-12.40047444 16.32275177 -12.7397104 18.65739357 -13 21 C-14.32 21 -15.64 21 -17 21 C-17 15.06 -17 9.12 -17 3 C-17.66 2.67 -18.32 2.34 -19 2 C-12.56986533 0.26044666 -6.65050424 -0.24991456 0 0 Z " fill="#2D3037" transform="translate(47,5)"/>
<path d="M0 0 C0.99 0 1.98 0 3 0 C2.33989524 2.84550012 1.48275034 5.52325999 0.4375 8.25 C0.16808594 8.95640625 -0.10132813 9.6628125 -0.37890625 10.390625 C-0.58386719 10.92171875 -0.78882813 11.4528125 -1 12 C-1.66 12 -2.32 12 -3 12 C-2.67 12.99 -2.34 13.98 -2 15 C-1.9193378 16.48123547 -1.89238807 17.96582204 -1.90234375 19.44921875 C-1.90717773 20.72055664 -1.90717773 20.72055664 -1.91210938 22.01757812 C-1.92048828 22.89865234 -1.92886719 23.77972656 -1.9375 24.6875 C-1.94201172 25.58017578 -1.94652344 26.47285156 -1.95117188 27.39257812 C-1.96295017 29.59511987 -1.97939836 31.79752599 -2 34 C-2.66 34 -3.32 34 -4 34 C-4 27.07 -4 20.14 -4 13 C-5.32 13.33 -6.64 13.66 -8 14 C-8.43501326 8.77984085 -8.43501326 8.77984085 -8 6 C-5.6875 3.5 -5.6875 3.5 -3 2 C-2.01 2 -1.02 2 0 2 C0 1.34 0 0.68 0 0 Z " fill="#22282C" transform="translate(48,6)"/>
<path d="M0 0 C0.99 0 1.98 0 3 0 C3 1.65 3 3.3 3 5 C3.66 5 4.32 5 5 5 C6.33203125 6.57421875 6.33203125 6.57421875 7.8125 8.6875 C10.33920946 12.28450462 12.77224431 14.77224431 16 18 C8.74 18 1.48 18 -6 18 C-6.33 16.35 -6.66 14.7 -7 13 C-5.0625 13.3125 -5.0625 13.3125 -3 14 C-2.67 14.99 -2.34 15.98 -2 17 C1.63 16.67 5.26 16.34 9 16 C8.01 15.01 7.02 14.02 6 13 C2.35458155 13.23477199 2.35458155 13.23477199 -1 14 C-1 13.34 -1 12.68 -1 12 C0.65 11.67 2.3 11.34 4 11 C3.71125 10.45730469 3.4225 9.91460937 3.125 9.35546875 C2.75375 8.64003906 2.3825 7.92460938 2 7.1875 C1.443125 6.12595703 1.443125 6.12595703 0.875 5.04296875 C0 3 0 3 0 0 Z " fill="#120D16" transform="translate(11,43)"/>
<path d="M0 0 C0 5.94 0 11.88 0 18 C-1.32 18 -2.64 18 -4 18 C-4.33 15.03 -4.66 12.06 -5 9 C-6.98 8.34 -8.96 7.68 -11 7 C-11 6.34 -11 5.68 -11 5 C-9.35546875 3.7109375 -9.35546875 3.7109375 -7.1875 2.375 C-6.47980469 1.92898438 -5.77210937 1.48296875 -5.04296875 1.0234375 C-3 0 -3 0 0 0 Z " fill="#FBE53A" transform="translate(29,9)"/>
<path d="M0 0 C0.33 0 0.66 0 1 0 C1.33 5.61 1.66 11.22 2 17 C-0.52475462 18.26237731 -2.31200466 18.09856404 -5.125 18.0625 C-6.03507812 18.05347656 -6.94515625 18.04445313 -7.8828125 18.03515625 C-8.93082031 18.01775391 -8.93082031 18.01775391 -10 18 C-9.67 18.66 -9.34 19.32 -9 20 C-8.95977609 22.3329866 -8.95679753 24.66706666 -9 27 C-11.7115029 22.93274566 -11.57867488 19.8452389 -12 15 C-9.03 15 -6.06 15 -3 15 C-3.04125 13.72125 -3.0825 12.4425 -3.125 11.125 C-3.1953125 8.9453125 -3.1953125 8.9453125 -3 7 C-2.34 6.34 -1.68 5.68 -1 5 C-0.35232207 2.42938689 -0.35232207 2.42938689 0 0 Z " fill="#FDECA8" transform="translate(37,12)"/>
<path d="M0 0 C0.99 0 1.98 0 3 0 C3 7.26 3 14.52 3 22 C3.66 22.33 4.32 22.66 5 23 C4.01 24.32 3.02 25.64 2 27 C1.34 26.67 0.68 26.34 0 26 C0.66 24.68 1.32 23.36 2 22 C1.01 22 0.02 22 -1 22 C-1.02887814 18.52085059 -1.04675687 15.04173169 -1.0625 11.5625 C-1.07087891 10.56927734 -1.07925781 9.57605469 -1.08789062 8.55273438 C-1.09111328 7.60849609 -1.09433594 6.66425781 -1.09765625 5.69140625 C-1.10289307 4.81685791 -1.10812988 3.94230957 -1.11352539 3.04125977 C-1 1 -1 1 0 0 Z " fill="#F9D048" transform="translate(41,19)"/>
<path d="M0 0 C0.87462891 0.00902344 1.74925781 0.01804688 2.65039062 0.02734375 C4.78788064 0.0507043 6.92522786 0.08656753 9.0625 0.125 C9.0625 0.455 9.0625 0.785 9.0625 1.125 C7.77279297 1.16367187 7.77279297 1.16367187 6.45703125 1.203125 C-4.7049513 1.73870541 -15.13700359 3.49232574 -24.3515625 10.171875 C-25.9375 11.125 -25.9375 11.125 -28.9375 11.125 C-29.2675 10.135 -29.5975 9.145 -29.9375 8.125 C-28.9475 8.125 -27.9575 8.125 -26.9375 8.125 C-26.9375 7.465 -26.9375 6.805 -26.9375 6.125 C-26.2775 6.125 -25.6175 6.125 -24.9375 6.125 C-25.2675 4.805 -25.5975 3.485 -25.9375 2.125 C-24.9475 2.455 -23.9575 2.785 -22.9375 3.125 C-22.9375 3.785 -22.9375 4.445 -22.9375 5.125 C-22.091875 4.67125 -21.24625 4.2175 -20.375 3.75 C-13.3805841 0.44354885 -7.63716925 -0.15100107 0 0 Z " fill="#0F1118" transform="translate(41.9375,1.875)"/>
<path d="M0 0 C0.99 0.33 1.98 0.66 3 1 C3 1.99 3 2.98 3 4 C3.99 4.66 4.98 5.32 6 6 C5.34 8.31 4.68 10.62 4 13 C2.02 13 0.04 13 -2 13 C-2 9.04 -2 5.08 -2 1 C-1.34 0.67 -0.68 0.34 0 0 Z " fill="#271426" transform="translate(51,23)"/>
<path d="M0 0 C-0.33 5.61 -0.66 11.22 -1 17 C-0.01 17.33 0.98 17.66 2 18 C0.35 18.66 -1.3 19.32 -3 20 C-3 14.72 -3 9.44 -3 4 C-5.64 4 -8.28 4 -11 4 C-11.33 3.01 -11.66 2.02 -12 1 C-10.37512529 0.83211627 -8.75009558 0.66573213 -7.125 0.5 C-6.22007813 0.4071875 -5.31515625 0.314375 -4.3828125 0.21875 C-2 0 -2 0 0 0 Z " fill="#E99631" transform="translate(39,29)"/>
<path d="M0 0 C0.99 0.33 1.98 0.66 3 1 C3 7.93 3 14.86 3 22 C0.69 22.66 -1.62 23.32 -4 24 C-4.66 23.01 -5.32 22.02 -6 21 C-4.35 21 -2.7 21 -1 21 C-0.06213918 15.94990405 -0.06213918 15.94990405 -1 11 C-0.34 11 0.32 11 1 11 C1 10.34 1 9.68 1 9 C0.34 9 -0.32 9 -1 9 C-1 8.34 -1 7.68 -1 7 C-0.34 7 0.32 7 1 7 C0.67 4.69 0.34 2.38 0 0 Z " fill="#561C32" transform="translate(13,20)"/>
<path d="M0 0 C2.97 1.65 5.94 3.3 9 5 C7.75023244 8.65316671 7.32901247 9.78065836 4 12 C2.68 11.34 1.36 10.68 0 10 C0 6.7 0 3.4 0 0 Z " fill="#271528" transform="translate(4,6)"/>
<path d="M0 0 C0.99 0 1.98 0 3 0 C4.6875 2 4.6875 2 6 4 C5 6 5 6 2 8 C-0.26171875 8.1953125 -0.26171875 8.1953125 -2.6875 8.125 C-3.49574219 8.10695313 -4.30398437 8.08890625 -5.13671875 8.0703125 C-6.05904297 8.03550781 -6.05904297 8.03550781 -7 8 C-7 8.66 -7 9.32 -7 10 C-7.66 9.67 -8.32 9.34 -9 9 C-8.34 7.68 -7.68 6.36 -7 5 C-5.68 5.33 -4.36 5.66 -3 6 C-2.814375 5.071875 -2.814375 5.071875 -2.625 4.125 C-2 2 -2 2 0 0 Z " fill="#31162A" transform="translate(43,52)"/>
<path d="M0 0 C0.33 0 0.66 0 1 0 C1.25 5.625 1.25 5.625 -1 9 C0.32 9 1.64 9 3 9 C2.1875 10.9375 2.1875 10.9375 1 13 C0.01 13.33 -0.98 13.66 -2 14 C-2 14.66 -2 15.32 -2 16 C-2.99 15.67 -3.98 15.34 -5 15 C-6.16898722 10.90854474 -6.24508059 9.45635697 -4.1875 5.625 C-3.465625 4.75875 -2.74375 3.8925 -2 3 C-1.34 3 -0.68 3 0 3 C0 2.01 0 1.02 0 0 Z " fill="#261427" transform="translate(55,5)"/>
<path d="M0 0 C6.625 -0.125 6.625 -0.125 10 1 C9.67 1.99 9.34 2.98 9 4 C9.20625 5.155 9.4125 6.31 9.625 7.5 C10 11 10 11 8.5625 12.9375 C8.046875 13.288125 7.53125 13.63875 7 14 C7 13.01 7 12.02 7 11 C6.01 10.67 5.02 10.34 4 10 C4.66 10 5.32 10 6 10 C5.67 7.69 5.34 5.38 5 3 C2.525 2.01 2.525 2.01 0 1 C0 0.67 0 0.34 0 0 Z " fill="#331830" transform="translate(4,28)"/>
<path d="M0 0 C1.98 0.99 1.98 0.99 4 2 C4 9.59 4 17.18 4 25 C3.34 25 2.68 25 2 25 C1.96241577 24.07719238 1.96241577 24.07719238 1.92407227 23.13574219 C1.80781513 20.34029844 1.68522358 17.54516702 1.5625 14.75 C1.52318359 13.78191406 1.48386719 12.81382813 1.44335938 11.81640625 C1.40146484 10.88183594 1.35957031 9.94726562 1.31640625 8.984375 C1.27974854 8.12553711 1.24309082 7.26669922 1.20532227 6.38183594 C1.01296486 4.15039857 0.61153756 2.15017476 0 0 Z " fill="#283C46" transform="translate(16,17)"/>
<path d="M0 0 C0.66 0 1.32 0 2 0 C2 6.93 2 13.86 2 21 C2.99 21 3.98 21 5 21 C4.64950425 24.24208567 4.43778819 25.61527704 1.9375 27.8125 C1.298125 28.204375 0.65875 28.59625 0 29 C0.020625 28.21625 0.04125 27.4325 0.0625 26.625 C0.18684063 24.01885039 0.18684063 24.01885039 -1 22 C-0.34 22 0.32 22 1 22 C0.67 14.74 0.34 7.48 0 0 Z " fill="#5A6E6D" transform="translate(45,18)"/>
<path d="M0 0 C1.98 0 3.96 0 6 0 C6.28571429 7.42857143 6.28571429 7.42857143 4 11 C2.35 10.67 0.7 10.34 -1 10 C-0.34 9.01 0.32 8.02 1 7 C1.20497101 4.19872957 1.26272884 2.52545768 0 0 Z " fill="#160E1B" transform="translate(54,4)"/>
<path d="M0 0 C-2.77280706 3.08089673 -5.06326356 4.68775452 -9 6 C-9 6.66 -9 7.32 -9 8 C-7.35 8 -5.7 8 -4 8 C-5.98 8.99 -5.98 8.99 -8 10 C-8.99 9.34 -9.98 8.68 -11 8 C-11.99 8.33 -12.98 8.66 -14 9 C-11.49618668 2.62665701 -6.55404514 -0.17247487 0 0 Z " fill="#403D3E" transform="translate(27,8)"/>
<path d="M0 0 C2.80045623 3.14591933 3.35261589 5.067064 3.1875 9.25 C3.16042969 10.14203125 3.13335938 11.0340625 3.10546875 11.953125 C3.07066406 12.62859375 3.03585938 13.3040625 3 14 C2.01 13.67 1.02 13.34 0 13 C0.66 12.67 1.32 12.34 2 12 C0.02 11.34 -1.96 10.68 -4 10 C-4 8.68 -4 7.36 -4 6 C-3.01 5.34 -2.02 4.68 -1 4 C-0.27617533 1.94074861 -0.27617533 1.94074861 0 0 Z " fill="#FCDD36" transform="translate(25,37)"/>
<path d="M0 0 C3.3 0 6.6 0 10 0 C7 2 7 2 4.875 3.125 C1.94734973 6.05265027 2.26626122 8.93951636 2 13 C1.34 13 0.68 13 0 13 C-0.19466332 11.20909747 -0.38051213 9.41723495 -0.5625 7.625 C-0.66691406 6.62726562 -0.77132812 5.62953125 -0.87890625 4.6015625 C-1 2 -1 2 0 0 Z " fill="#F5F2AD" transform="translate(38,7)"/>
<path d="M0 0 C0.66 0 1.32 0 2 0 C2 0.66 2 1.32 2 2 C4.31 1.34 6.62 0.68 9 0 C10.35432675 1.31200404 11.68733482 2.64631404 13 4 C13 4.33 13 4.66 13 5 C9.04 5 5.08 5 1 5 C1 4.34 1 3.68 1 3 C0.34 2.67 -0.32 2.34 -1 2 C-0.67 1.34 -0.34 0.68 0 0 Z " fill="#44192D" transform="translate(8,55)"/>
<path d="M0 0 C0.33 0.99 0.66 1.98 1 3 C2.3921875 3.061875 2.3921875 3.061875 3.8125 3.125 C7 4 7 4 8.875 6.9375 C10 10 10 10 10 12 C5.25 11.125 5.25 11.125 3 10 C3.33 8.68 3.66 7.36 4 6 C2.68 5.67 1.36 5.34 0 5 C0 3.35 0 1.7 0 0 Z " fill="#43192E" transform="translate(5,42)"/>
<path d="M0 0 C3.36591866 1.44253657 5.51047079 3.33264727 8 6 C6.88625 5.938125 5.7725 5.87625 4.625 5.8125 C2.830625 5.9053125 2.830625 5.9053125 1 6 C0.01 7.485 0.01 7.485 -1 9 C-1.99 8.67 -2.98 8.34 -4 8 C-2.87548273 5.0280615 -1.77706209 2.66559313 0 0 Z " fill="#45182C" transform="translate(51,43)"/>
<path d="M0 0 C0.99 0 1.98 0 3 0 C3.10824843 1.6026782 3.18570645 3.20745748 3.25 4.8125 C3.29640625 5.70582031 3.3428125 6.59914063 3.390625 7.51953125 C3 10 3 10 0.984375 11.82421875 C0.32953125 12.21222656 -0.3253125 12.60023437 -1 13 C-1.02686553 11.02090602 -1.04633375 9.04171029 -1.0625 7.0625 C-1.07410156 5.96035156 -1.08570313 4.85820312 -1.09765625 3.72265625 C-1 1 -1 1 0 0 Z " fill="#E8742A" transform="translate(41,19)"/>
<path d="M0 0 C2.29160319 -0.02692484 4.58329546 -0.04636124 6.875 -0.0625 C8.15117188 -0.07410156 9.42734375 -0.08570313 10.7421875 -0.09765625 C14 0 14 0 16 1 C16 1.99 16 2.98 16 4 C14.22950311 4.05410687 12.45853151 4.09284119 10.6875 4.125 C9.20830078 4.15980469 9.20830078 4.15980469 7.69921875 4.1953125 C4.10986802 3.93559103 2.49894486 2.49894486 0 0 Z " fill="#5C6D71" transform="translate(37,3)"/>
<path d="M0 0 C0.33 0 0.66 0 1 0 C1 4.95 1 9.9 1 15 C0.34 14.34 -0.32 13.68 -1 13 C-1.99 13.495 -1.99 13.495 -3 14 C-3 11.36 -3 8.72 -3 6 C-2.01 5.67 -1.02 5.34 0 5 C0 3.35 0 1.7 0 0 Z " fill="#9C4324" transform="translate(24,18)"/>
<path d="M0 0 C0 1.32 0 2.64 0 4 C-1.26839526 4.50615298 -2.53983102 5.00469099 -3.8125 5.5 C-4.87404297 5.91765625 -4.87404297 5.91765625 -5.95703125 6.34375 C-8 7 -8 7 -11 7 C-11 6.34 -11 5.68 -11 5 C-9.35546875 3.7109375 -9.35546875 3.7109375 -7.1875 2.375 C-6.47980469 1.92898438 -5.77210937 1.48296875 -5.04296875 1.0234375 C-3 0 -3 0 0 0 Z " fill="#F1F1B5" transform="translate(29,9)"/>
<path d="M0 0 C0.66 0 1.32 0 2 0 C2 0.66 2 1.32 2 2 C0.7934375 2.9590625 0.7934375 2.9590625 -0.4375 3.9375 C-3.23720732 5.81035932 -3.23720732 5.81035932 -4 9 C-5.32 9 -6.64 9 -8 9 C-8.66 10.32 -9.32 11.64 -10 13 C-10.33 13 -10.66 13 -11 13 C-11.30859375 10.734375 -11.30859375 10.734375 -11 8 C-8.84765625 6.015625 -8.84765625 6.015625 -6.0625 4.25 C-5.14597656 3.65703125 -4.22945312 3.0640625 -3.28515625 2.453125 C-2.53105469 1.97359375 -1.77695312 1.4940625 -1 1 C-0.67 0.67 -0.34 0.34 0 0 Z " fill="#0C060D" transform="translate(44,49)"/>
<path d="M0 0 C2.31 0 4.62 0 7 0 C6.01 0.495 6.01 0.495 5 1 C5 1.66 5 2.32 5 3 C5.66 3.33 6.32 3.66 7 4 C6.67 5.32 6.34 6.64 6 8 C3.53199953 6.84826645 1.95216435 5.95216435 0 4 C0 2.68 0 1.36 0 0 Z " fill="#3D182E" transform="translate(52,37)"/>
<path d="M0 0 C0.33 0.99 0.66 1.98 1 3 C-0.65 3.33 -2.3 3.66 -4 4 C-3.81584568 6.94091587 -3.81584568 6.94091587 -3 10 C-1.04836882 11.43637698 -1.04836882 11.43637698 1 12 C-1.31 12 -3.62 12 -6 12 C-6 8.37 -6 4.74 -6 1 C-4.35 1 -2.7 1 -1 1 C-0.67 0.67 -0.34 0.34 0 0 Z " fill="#0E070F" transform="translate(10,16)"/>
<path d="M0 0 C0.33 0 0.66 0 1 0 C1 3.96 1 7.92 1 12 C0.01 12 -0.98 12 -2 12 C-2.33 12.66 -2.66 13.32 -3 14 C-3.66 13.34 -4.32 12.68 -5 12 C-5 11.01 -5 10.02 -5 9 C-4.0409375 8.7215625 -4.0409375 8.7215625 -3.0625 8.4375 C-0.57873787 7.05753944 -0.57873787 7.05753944 -0.25 3.375 C-0.1675 2.26125 -0.085 1.1475 0 0 Z " fill="#351628" transform="translate(59,11)"/>
<path d="M0 0 C0.99 0.33 1.98 0.66 3 1 C3.33 2.65 3.66 4.3 4 6 C0.375 9 0.375 9 -3 9 C-3.33 8.01 -3.66 7.02 -4 6 C-3.01 6 -2.02 6 -1 6 C-1 5.34 -1 4.68 -1 4 C-0.34 4 0.32 4 1 4 C0.67 2.68 0.34 1.36 0 0 Z " fill="#0A090D" transform="translate(16,4)"/>
<path d="M0 0 C1.31611677 0.95336021 2.62778961 1.91285774 3.9375 2.875 C4.66839844 3.40867188 5.39929688 3.94234375 6.15234375 4.4921875 C8 6 8 6 9 8 C5.54074837 6.7508258 2.85306797 5.32472205 0 3 C-0.28875 3.639375 -0.5775 4.27875 -0.875 4.9375 C-2 7 -2 7 -4 8 C-3.39676766 4.62189888 -2.09807945 2.67744188 0 0 Z " fill="#0C080E" transform="translate(51,40)"/>
<path d="M0 0 C1.1764485 2.35289699 1.03475851 3.41818951 0.75 6 C0.68296875 6.70125 0.6159375 7.4025 0.546875 8.125 C0 10 0 10 -3 12 C-3.08090971 10.37581255 -3.13914995 8.75048255 -3.1875 7.125 C-3.22230469 6.22007813 -3.25710937 5.31515625 -3.29296875 4.3828125 C-3.19628906 3.59648437 -3.09960938 2.81015625 -3 2 C-2.01 1.34 -1.02 0.68 0 0 Z " fill="#A95A34" transform="translate(37,7)"/>
<path d="M0 0 C0.33 0 0.66 0 1 0 C1.3690205 9.41002278 1.3690205 9.41002278 -1 14 C-1.66 14 -2.32 14 -3 14 C-3.125 10.625 -3.125 10.625 -3 7 C-2.34 6.34 -1.68 5.68 -1 5 C-0.35232207 2.42938689 -0.35232207 2.42938689 0 0 Z " fill="#FAC62F" transform="translate(37,12)"/>
<path d="M0 0 C1.98 0.99 3.96 1.98 6 3 C4.75023244 6.65316671 4.32901247 7.78065836 1 10 C0.34 9.34 -0.32 8.68 -1 8 C-0.01 8 0.98 8 2 8 C2 7.01 2 6.02 2 5 C1.34 4.67 0.68 4.34 0 4 C0 2.68 0 1.36 0 0 Z " fill="#481829" transform="translate(7,8)"/>
<path d="M0 0 C0.4125 0.495 0.825 0.99 1.25 1.5 C3.12202338 3.43386092 3.12202338 3.43386092 7 3 C6.67 4.32 6.34 5.64 6 7 C4.02 7 2.04 7 0 7 C0 4.69 0 2.38 0 0 Z " fill="#43182B" transform="translate(49,29)"/>
<path d="M0 0 C0.33 0 0.66 0 1 0 C1 2.97 1 5.94 1 9 C1.66 9 2.32 9 3 9 C3 9.99 3 10.98 3 12 C2.01 12.33 1.02 12.66 0 13 C-0.66 12.67 -1.32 12.34 -2 12 C-2.33 12.99 -2.66 13.98 -3 15 C-3 13.35 -3 11.7 -3 10 C-2.01 10 -1.02 10 0 10 C0 6.7 0 3.4 0 0 Z " fill="#1A232D" transform="translate(17,33)"/>
<path d="M0 0 C0 2.31 0 4.62 0 7 C-0.33 5.68 -0.66 4.36 -1 3 C-5.455 3.495 -5.455 3.495 -10 4 C-10.33 3.01 -10.66 2.02 -11 1 C-9.35422741 0.83273455 -7.70838013 0.66620388 -6.0625 0.5 C-4.68771484 0.36078125 -4.68771484 0.36078125 -3.28515625 0.21875 C-1 0 -1 0 0 0 Z " fill="#F8AD28" transform="translate(38,29)"/>
<path d="M0 0 C1.09658936 3.28976808 0.79953138 4.71303767 0 8 C-1.32 8.33 -2.64 8.66 -4 9 C-4 6.36 -4 3.72 -4 1 C-3.67 1.66 -3.34 2.32 -3 3 C-2.01 2.01 -1.02 1.02 0 0 Z " fill="#863124" transform="translate(44,11)"/>
<path d="M0 0 C-3.40938959 3.40938959 -8.40106802 3.89625633 -13 5 C-13 4.34 -13 3.68 -13 3 C-12.01 3 -11.02 3 -10 3 C-10 2.34 -10 1.68 -10 1 C-6.78548731 -0.60725635 -3.56387464 -0.05748185 0 0 Z " fill="#322333" transform="translate(32,2)"/>
<path d="M0 0 C0.5625 1.9375 0.5625 1.9375 1 4 C0.67 4.33 0.34 4.66 0 5 C0.66 5.33 1.32 5.66 2 6 C2 6.66 2 7.32 2 8 C-1.25543229 7.65120368 -2.01873107 6.97866739 -4.25 4.4375 C-5.11625 3.2309375 -5.11625 3.2309375 -6 2 C-3.03 2.495 -3.03 2.495 0 3 C0 2.01 0 1.02 0 0 Z " fill="#F5E17A" transform="translate(26,45)"/>
<path d="M0 0 C0.99 0 1.98 0 3 0 C3 1.65 3 3.3 3 5 C1.02 5.99 1.02 5.99 -1 7 C-1.04254356 5.00045254 -1.04080783 2.99958364 -1 1 C-0.67 0.67 -0.34 0.34 0 0 Z " fill="#B23E20" transform="translate(22,36)"/>
<path d="M0 0 C0 0.99 0 1.98 0 3 C-4.34285714 7 -4.34285714 7 -7 7 C-6.875 5.1875 -6.875 5.1875 -6 3 C-2.9375 1.25 -2.9375 1.25 0 0 Z " fill="#562733" transform="translate(48,7)"/>
<path d="M0 0 C1.65 0.33 3.3 0.66 5 1 C5 1.99 5 2.98 5 4 C3.02 4.33 1.04 4.66 -1 5 C-1.33 4.01 -1.66 3.02 -2 2 C-1.34 2 -0.68 2 0 2 C0 1.34 0 0.68 0 0 Z " fill="#331528" transform="translate(12,4)"/>
<path d="M0 0 C0.66 1.32 1.32 2.64 2 4 C0.824375 3.9071875 0.824375 3.9071875 -0.375 3.8125 C-1.674375 3.9053125 -1.674375 3.9053125 -3 4 C-3.66 4.99 -4.32 5.98 -5 7 C-5.6875 5.1875 -5.6875 5.1875 -6 3 C-4.04862098 0.26806937 -3.44686768 0 0 0 Z " fill="#551E37" transform="translate(46,52)"/>
<path d="M0 0 C0.99 0 1.98 0 3 0 C3 1.32 3 2.64 3 4 C3.99 4.33 4.98 4.66 6 5 C5.67 5.99 5.34 6.98 5 8 C5 7.34 5 6.68 5 6 C3.35 6 1.7 6 0 6 C0 4.02 0 2.04 0 0 Z " fill="#1C1224" transform="translate(6,21)"/>
<path d="M0 0 C0.33 0.66 0.66 1.32 1 2 C1.66 2 2.32 2 3 2 C3.33 2.99 3.66 3.98 4 5 C2.68 5 1.36 5 0 5 C0.33 6.65 0.66 8.3 1 10 C0.01 9.67 -0.98 9.34 -2 9 C-1.34 6.03 -0.68 3.06 0 0 Z " fill="#151320" transform="translate(4,51)"/>
<path d="M0 0 C0 2.31 0 4.62 0 7 C-1.32 6.67 -2.64 6.34 -4 6 C-4 4.68 -4 3.36 -4 2 C-1 0 -1 0 0 0 Z " fill="#F88A27" transform="translate(25,41)"/>
<path d="M0 0 C1.65 0 3.3 0 5 0 C5 1.98 5 3.96 5 6 C4.01 6.33 3.02 6.66 2 7 C1.34 4.69 0.68 2.38 0 0 Z " fill="#581328" transform="translate(19,17)"/>
<path d="M0 0 C0.66 0.33 1.32 0.66 2 1 C1.52949219 1.32613281 1.05898438 1.65226563 0.57421875 1.98828125 C-0.04839844 2.42527344 -0.67101563 2.86226562 -1.3125 3.3125 C-1.92738281 3.74175781 -2.54226562 4.17101562 -3.17578125 4.61328125 C-4.94645331 5.95929534 -6.46738009 7.39192803 -8 9 C-8 8.01 -8 7.02 -8 6 C-5.45600033 3.67721769 -3.09376059 1.54688029 0 0 Z " fill="#5A7579" transform="translate(22,8)"/>
<path d="M0 0 C0.66 0 1.32 0 2 0 C2.1875 2.875 2.1875 2.875 2 6 C1.01 6.66 0.02 7.32 -1 8 C-1.04241723 5.66705225 -1.04092937 3.33297433 -1 1 C-0.67 0.67 -0.34 0.34 0 0 Z " fill="#FDD128" transform="translate(41,19)"/>
<path d="M0 0 C0.99 0 1.98 0 3 0 C3.33 2.31 3.66 4.62 4 7 C3.01 7.495 3.01 7.495 2 8 C0.74335022 5.09399739 0 3.20395416 0 0 Z " fill="#0F060C" transform="translate(11,43)"/>
<path d="M0 0 C2 3 2 3 2 6 C0.68 6.33 -0.64 6.66 -2 7 C-2.125 4.625 -2.125 4.625 -2 2 C-1.34 1.34 -0.68 0.68 0 0 Z " fill="#F28423" transform="translate(23,30)"/>
<path d="M0 0 C0.91058531 3.07322544 1.08886184 5.80097361 1 9 C-0.5625 7.8125 -0.5625 7.8125 -2 6 C-1.57894737 1.57894737 -1.57894737 1.57894737 0 0 Z " fill="#5A1B31" transform="translate(51,12)"/>
</svg>
